Coordinates
version=1
nRows=14
nColumns=40
inDegrees=yes

Units are S.I. units (second, meters, Newtons, ...)
Angles are in degrees.

endheader
time	pelvis_tilt	pelvis_list	pelvis_rotation	pelvis_tx	pelvis_ty	pelvis_tz	hip_flexion_r	hip_adduction_r	hip_rotation_r	knee_angle_r	knee_angle_r_beta	ankle_angle_r	subtalar_angle_r	mtp_angle_r	hip_flexion_l	hip_adduction_l	hip_rotation_l	knee_angle_l	knee_angle_l_beta	ankle_angle_l	subtalar_angle_l	mtp_angle_l	lumbar_extension	lumbar_bending	lumbar_rotation	arm_flex_r	arm_add_r	arm_rot_r	elbow_flex_r	pro_sup_r	wrist_flex_r	wrist_dev_r	arm_flex_l	arm_add_l	arm_rot_l	elbow_flex_l	pro_sup_l	wrist_flex_l	wrist_dev_l
     25.91000000	     -3.49448344	     -7.03073369	     -5.93410323	      0.98470206	      0.92667635	      0.56849575	     12.42279610	      7.01693774	    -10.11117216	     19.99454371	     19.99454371	     11.70666158	     -4.84765099	     -1.88240907	     13.42473435	    -16.82857638	     -4.29753670	     55.04462882	     55.04462882	      1.52291347	    -18.76517838	     -8.33611385	     -9.25527665	      7.83661484	     -0.55600758	      1.80492811	    -18.84071824	    -13.00768507	     65.62270449	     45.40225171	      0.00000000	      0.00000000	     15.92874265	    -13.76195469	     -8.27525032	     63.43188785	     45.86922684	      0.00000000	      0.00000000
     25.92885714	     -3.18302106	     -7.22362047	     -5.24296672	      0.98395447	      0.92520641	      0.57042673	     12.24892633	      7.22979551	    -10.26994019	     20.96224727	     20.96224727	     12.39278008	     -5.77524679	     -2.13241520	     16.03944543	    -17.42972993	     -3.02702102	     59.21409193	     59.21409193	     -0.72356172	    -19.04070765	     -6.59419904	     -9.41455347	      7.73271533	     -0.99470147	      4.14764004	    -18.70361570	    -13.08482450	     67.67638097	     45.34710581	      0.00000000	      0.00000000	     13.65016771	    -13.31890391	     -7.66761771	     60.82516633	     45.79477506	      0.00000000	      0.00000000
     25.94771429	     -2.90605494	     -7.18906553	     -4.53812832	      0.98315926	      0.92366662	      0.57210954	     12.20688932	      7.24234222	    -10.17375730	     22.07195737	     22.07195737	     13.13404347	     -7.17410708	     -2.11159762	     18.69868039	    -17.45872699	     -1.57271431	     63.16148132	     63.16148132	     -1.54638761	    -19.20816104	     -1.21687308	     -9.44103491	      7.45065366	     -1.71367566	      6.54370794	    -18.38844537	    -12.70275319	     70.60839339	     45.24889688	      0.00000000	      0.00000000	     11.72683315	    -12.94923671	     -6.81967686	     56.26411712	     45.70143415	      0.00000000	      0.00000000
     25.96657143	     -2.39941401	     -7.22394348	     -3.92279100	      0.98237605	      0.92255864	      0.57345044	     11.82178128	      7.25664768	    -10.27368591	     23.06189009	     23.06189009	     14.06823909	     -7.84282362	     -1.60895998	     21.09014805	    -17.22746224	     -0.04390408	     66.90407913	     66.90407913	      0.19460704	    -19.19749960	     10.27526881	     -9.81001225	      7.24574291	     -0.70781805	      7.94309236	    -19.38677924	    -12.42655873	     73.23135043	     45.17473243	      0.00000000	      0.00000000	     11.67556772	    -11.63005505	     -5.40874630	     49.99759014	     45.63035828	      0.00000000	      0.00000000
     25.98542857	     -2.02090527	     -7.29999377	     -3.27069333	      0.98164524	      0.92122721	      0.57492799	     11.51488695	      7.38475788	    -10.32360694	     23.91020471	     23.91020471	     14.77173200	     -8.77721526	     -1.52117695	     23.07323774	    -17.46860896	      0.78029416	     69.39334887	     69.39334887	     -0.29174740	    -19.38234402	     12.88731350	    -10.04783699	      7.07243314	     -1.12223905	     10.58500168	    -18.93074546	    -12.81645674	     75.51707788	     45.12991370	      0.00000000	      0.00000000	      9.58754568	    -11.20813654	     -4.67673349	     46.72750769	     45.55384839	      0.00000000	      0.00000000
     26.00428571	     -1.63581175	     -7.39342183	     -2.63133913	      0.98085325	      0.92017162	      0.57605693	     11.13738970	      7.55039406	    -10.32905198	     24.61226327	     24.61226327	     15.42820040	     -9.71250172	     -1.11210976	     24.89390555	    -17.67060124	      1.43742499	     71.29012059	     71.29012059	      0.73114391	    -19.46995460	     17.37255658	    -10.32409608	      6.96049078	     -1.09843200	     13.07349779	    -18.95682978	    -12.76344447	     77.59334400	     45.08128620	      0.00000000	      0.00000000	      8.27537656	    -10.53875548	     -3.73623088	     42.23558204	     45.46803218	      0.00000000	      0.00000000
     26.02314286	     -1.34881330	     -7.55118496	     -1.97869670	      0.97998685	      0.91916706	      0.57689559	     10.76534159	      7.76795783	    -10.50048564	     25.09572784	     25.09572784	     15.97247389	    -10.41003253	     -0.88244668	     26.57909208	    -17.99481298	      1.87954710	     72.37973944	     72.37973944	      1.82361643	    -19.56532420	     19.61798181	    -10.51670376	      6.95168861	     -1.10203969	     15.56893060	    -18.79587480	    -12.85613664	     79.55072367	     45.03807411	      0.00000000	      0.00000000	      6.57934304	     -9.93254053	     -3.07613580	     39.09100959	     45.38977069	      0.00000000	      0.00000000
     26.04200000	     -1.05028529	     -7.59202297	     -1.40089069	      0.97907432	      0.91864990	      0.57730797	     10.29353348	      7.85900947	    -10.59957305	     25.41162171	     25.41162171	     16.53494767	    -10.94496023	     -0.27512151	     28.00207941	    -18.16472495	      2.00802719	     72.70665754	     72.70665754	      4.02416778	    -19.61252077	     22.91746523	    -10.72931569	      6.81903727	     -0.49813212	     17.77604581	    -19.27127346	    -12.73885260	     81.19551019	     45.00906527	      0.00000000	      0.00000000	      5.66031173	     -9.18275672	     -2.07056328	     34.86676864	     45.30456909	      0.00000000	      0.00000000
     26.06085714	     -0.83061581	     -7.57698547	     -0.77430361	      0.97811184	      0.91842491	      0.57727094	      9.78239818	      7.87791781	    -10.78247535	     25.45373518	     25.45373518	     16.84795615	    -11.41994946	     -0.07321021	     29.19474475	    -18.25456029	      1.91536393	     72.06819043	     72.06819043	      5.86608508	    -19.65605311	     23.42131744	    -10.90682040	      6.69330053	     -0.47352498	     20.31097114	    -19.00184281	    -12.86866952	     83.15444440	     44.96756873	      0.00000000	      0.00000000	      3.68537066	     -8.66530010	     -1.58488070	     32.81761758	     45.23088487	      0.00000000	      0.00000000
     26.07971429	     -0.67275905	     -7.47305813	     -0.16847699	      0.97703439	      0.91856892	      0.57673085	      9.24607535	      7.77803009	    -10.98725920	     25.31128718	     25.31128718	     17.07345942	    -11.75954906	      0.09975358	     30.18067644	    -18.10185200	      1.70626767	     70.58932877	     70.58932877	      8.03778396	    -19.66933172	     23.80976218	    -11.06268550	      6.51409546	     -0.30049939	     22.83896105	    -18.92125219	    -12.83953456	     84.93129828	     44.92531790	      0.00000000	      0.00000000	      1.81741995	     -8.17437581	     -1.14306136	     31.02605503	     45.15565294	      0.00000000	      0.00000000
     26.09857143	     -0.64769574	     -7.25276302	      0.43991919	      0.97581231	      0.91899243	      0.57563609	      8.74057614	      7.52554564	    -11.26623584	     24.94678407	     24.94678407	     17.23417701	    -11.94057049	      0.26771830	     31.03617900	    -17.61647028	      1.46719189	     68.28528087	     68.28528087	     10.20371717	    -19.67204192	     24.04212911	    -11.08674511	      6.23101084	     -0.10679351	     25.28063156	    -18.91455900	    -12.65884867	     86.66180955	     44.88002407	      0.00000000	      0.00000000	      0.01171316	     -7.75554399	     -0.68916235	     29.37469258	     45.07610686	      0.00000000	      0.00000000
     26.11742857	     -0.76861574	     -6.95892486	      1.05694431	      0.97442376	      0.91962593	      0.57407075	      8.29450956	      7.15473860	    -11.65463571	     24.39397097	     24.39397097	     17.29518115	    -11.90968172	      0.39733589	     31.73666177	    -16.81605214	      1.33846894	     65.17183191	     65.17183191	     12.11417787	    -19.64163249	     23.87243518	    -11.00256985	      5.89641228	      0.05611746	     27.69175758	    -18.98305225	    -12.30053398	     88.42206576	     44.83059815	      0.00000000	      0.00000000	     -1.76035385	     -7.38844154	     -0.16615359	     27.90563744	     44.98522216	      0.00000000	      0.00000000
     26.13628571	     -0.94529241	     -6.57927223	      1.67447322	      0.97294158	      0.92049067	      0.57203216	      7.82444859	      6.66248128	    -12.09310193	     23.69639922	     23.69639922	     17.32370204	    -11.74927863	      0.44379257	     32.14920999	    -15.70475226	      1.35628266	     61.31484638	     61.31484638	     13.46821114	    -19.58851272	     23.24998063	    -10.88910277	      5.49548223	      0.30308449	     30.07808773	    -19.10940226	    -11.93994907	     90.12833216	     44.78306229	      0.00000000	      0.00000000	     -3.49908071	     -7.11541650	      0.28784637	     26.87327031	     44.89895527	      0.00000000	      0.00000000
     26.15514286	     -1.24063479	     -6.19115035	      2.30469706	      0.97136496	      0.92136891	      0.56962227	      7.38546811	      6.12473647	    -12.69664829	     22.82959358	     22.82959358	     17.25989127	    -11.36080367	      0.31791630	     32.35702760	    -14.41575023	      1.60709102	     56.83077944	     56.83077944	     14.04565411	    -19.49962975	     21.85566803	    -10.69354250	      5.10007409	      0.43721014	     32.47819180	    -19.29174209	    -11.27770737	     91.95487075	     44.72808182	      0.00000000	      0.00000000	     -5.26862386	     -6.97011766	      0.88629707	     26.18837683	     44.79000927	      0.00000000	      0.00000000
